<svg width="137" height="240" viewBox="0 0 137 240" fill="none" xmlns="http://www.w3.org/2000/svg">
<path d="M118.477 173.672C117.211 167.812 119.404 128.805 118.353 121.059C117.302 113.312 110.606 92.2527 109.609 89.3556C108.611 86.4585 106.75 81.2063 102.948 80.4213C101.853 80.1851 100.718 80.1958 99.6271 80.4524C98.536 80.7091 97.5157 81.2054 96.6402 81.9052C96.6402 81.9052 95.6272 77.1317 95.0371 75.321C93.505 70.6031 90.9853 68.2125 86.8423 67.8732C84.4813 67.7133 82.1451 68.4352 80.2859 69.8991C80.2859 69.8991 77.5585 59.2909 68.9432 59.6961C59.7456 60.1266 59.001 69.2964 58.7832 71.5477C58.3046 76.5011 57.203 87.0815 57.203 87.0815C57.203 87.0815 52.204 85.9318 49.659 82.4219C47.1139 78.9119 39.4129 62.9223 35.9612 53.7019C32.4108 44.2205 22.856 20.1399 19.6627 12.5275C16.4693 4.91509 12.2452 -2.22882 5.07854 0.653055C-2.64783 3.76032 0.502483 12.2743 1.38376 17.0402C2.26504 21.8062 10.7182 45.4893 13.7318 54.9934C15.3804 60.1949 20.045 76.0934 23.8766 89.3733C18.128 83.7362 12.0553 84.696 9.87238 87.1144C7.48179 89.7329 14.8435 98.0316 8.60618 119.352C7.33998 123.657 17.538 136.686 23.2004 157.725C23.8107 159.989 32.4488 171.471 38.2378 181.652C38.7443 183.328 39.2508 184.556 39.8181 185.139C43.4369 188.937 51.2823 197.801 56.6155 203.311C61.9487 208.822 64.1013 239.14 64.1013 239.14H136.953C136.953 239.14 119.736 179.547 118.477 173.672Z" fill="#FFBD95"/>
<path d="M6.37021 0.65295C9.80669 -0.760132 12.4758 0.460487 14.1776 2.12174C15.8794 3.783 19.0905 14.0848 18.5131 15.8752C17.9357 17.6656 9.79402 21.3402 7.8466 20.5627C5.26862 19.5244 2.24999 10.4179 1.82201 7.74115C1.39404 5.0644 2.38421 2.29901 6.37021 0.65295Z" fill="#FFC8A7"/>
<path d="M24.0029 89.8188C24.0029 89.8188 27.2799 101.26 31.0937 118.688C31.5191 120.638 32.2029 125.984 32.2029 125.984C32.2029 125.984 29.9566 135.554 29.8199 140.031C29.6831 144.509 32.5194 160.387 32.5194 160.387C32.5194 160.387 23.9979 146.436 24.0105 136.349C24.0105 128.575 25.6313 117.526 25.2565 114.824C24.203 107.333 24.0029 89.8188 24.0029 89.8188Z" fill="#F9A983"/>
<path d="M80.2856 69.8936C80.2856 69.8936 80.7263 88.4029 81.7899 92.1103C82.9776 96.2458 85.0263 98.9301 86.5609 98.8009C88.7135 98.6161 88.6299 95.2556 87.0927 90.4972C85.5556 85.7388 80.2856 69.8936 80.2856 69.8936Z" fill="#F9A983"/>
<path d="M96.6406 81.905C96.6406 81.905 97.7042 94.1923 99.0869 97.9909C100.47 101.789 101.414 103.815 103.111 104.005C104.808 104.195 105.137 102.288 104.25 99.4267C102.559 93.9517 96.6406 81.905 96.6406 81.905Z" fill="#F9A983"/>
<path d="M48.9453 81.1301C48.9453 81.1301 49.976 85.5948 52.6705 88.0714C55.365 90.5481 57.1655 90.6596 57.1655 90.6596L57.2035 87.0787C55.7558 86.5854 54.3415 85.9992 52.9693 85.3238C51.2239 84.3792 49.8171 82.913 48.9453 81.1301V81.1301Z" fill="#F9A983"/>
<path d="M7.84619 20.5577C9.72777 21.3174 17.444 17.8708 18.4139 16.0323C16.3116 15.6922 14.1561 15.9448 12.1893 16.7616C9.30486 17.9797 8.20326 19.7878 7.84619 20.5577Z" fill="#FFD3B9"/>
<g style="mix-blend-mode:soft-light">
<path d="M118.353 121.049C117.302 113.304 110.606 92.2424 109.609 89.3454C108.611 86.4483 106.75 81.1961 102.948 80.411C101.853 80.1749 100.718 80.1856 99.6272 80.4422C98.5361 80.6989 97.5158 81.1952 96.6403 81.895C96.6403 81.895 95.6273 77.1189 95.0373 75.3108C93.5052 70.5929 90.9854 68.2023 86.8399 67.863C84.4799 67.705 82.1451 68.4267 80.286 69.8889C79.9173 68.6194 79.4166 67.3921 78.7919 66.2271C66.8072 88.363 61.6046 113.537 63.833 138.611C67.3201 178.494 78.9109 215.507 107.542 239.129H136.954C136.954 239.129 119.733 179.534 118.467 173.672C117.201 167.809 119.404 128.805 118.353 121.049Z" fill="#F99C94"/>
</g>
<path d="M61.9793 197.608C53.0628 190.629 36.0577 170.316 36.0121 170.276C36.0349 170.44 36.0602 170.59 36.083 170.752C30.7092 163.841 25.8116 157.343 25.5507 156.968C25.0214 156.208 22.2586 145.101 19.4983 137.334C16.738 129.567 8.51017 124.016 11.0476 119.185C13.2939 114.912 15.9656 103.965 15.92 102.851L11.1388 102.177C11.2097 106.652 10.6501 112.266 8.57601 119.342C7.30981 123.647 17.5078 136.676 23.1703 157.715C23.8413 160.207 33.5531 173.398 39.1624 184.197C39.1624 184.197 39.1624 184.197 39.1624 184.181C39.3249 184.524 39.5336 184.843 39.7828 185.128C43.4016 188.927 51.247 197.79 56.5803 203.301C61.9135 208.811 64.066 239.129 64.066 239.129H85.4193C85.4193 239.129 66.6314 201.25 61.9793 197.608Z" fill="#F9A983"/>
<path d="M11.28 103.446C11.28 103.446 15.3192 103.471 15.808 102.615C16.2967 101.759 15.1647 91.9256 12.9109 89.6921C10.6571 87.4585 8.96794 87.1597 8.69697 87.6459C8.42601 88.1321 10.4646 103.045 11.28 103.446Z" fill="#FFC8A7"/>
</svg>
