<svg width="60" height="12" viewBox="0 0 60 12" fill="none" xmlns="http://www.w3.org/2000/svg">
<path d="M6 0.0283203L7.34708 4.10271L11.7063 4.10271L8.17963 6.62082L9.52671 10.6952L6 8.1771L2.47329 10.6952L3.82037 6.62082L0.293661 4.10271L4.65292 4.10271L6 0.0283203Z" fill="#FE7E03"/>
<path d="M18.001 0.0283203L19.3481 4.10271L23.7073 4.10271L20.1806 6.62082L21.5277 10.6952L18.001 8.1771L14.4743 10.6952L15.8213 6.62082L12.2946 4.10271L16.6539 4.10271L18.001 0.0283203Z" fill="#FE7E03"/>
<path d="M30 0.0283203L31.3471 4.10271L35.7063 4.10271L32.1796 6.62082L33.5267 10.6952L30 8.1771L26.4733 10.6952L27.8204 6.62082L24.2937 4.10271L28.6529 4.10271L30 0.0283203Z" fill="#FE7E03"/>
<path d="M42 0.0283203L43.3471 4.10271L47.7063 4.10271L44.1796 6.62082L45.5267 10.6952L42 8.1771L38.4733 10.6952L39.8204 6.62082L36.2937 4.10271L40.6529 4.10271L42 0.0283203Z" fill="#FE7E03"/>
<path d="M53.999 0.0283203L55.3461 4.10271L59.7054 4.10271L56.1787 6.62082L57.5257 10.6952L53.999 8.1771L50.4723 10.6952L51.8194 6.62082L48.2927 4.10271L52.6519 4.10271L53.999 0.0283203Z" fill="#FE7E03"/>
</svg>
