<svg width="1803" height="260" viewBox="0 0 1803 260" fill="none" xmlns="http://www.w3.org/2000/svg">
<path d="M1802 162.735C1767.58 165.841 1661.62 135.314 1632.63 136.195C1603.65 137.076 1547.5 149.161 1518.51 150.912C1471.62 153.744 1389 165.317 1329.67 151.882C1289.75 142.841 1204.69 104.979 1153.51 97.3966C1112.58 91.3302 1053.2 101.084 1028.63 106.719C1017.35 111.433 1006.06 116.142 995.263 120.296C984.466 124.45 974.146 128.018 964.262 128.381C954.378 128.743 944.932 125.863 935.442 124.756C925.952 123.65 916.42 124.327 911.566 125.149C906.712 125.972 906.539 126.962 906.232 127.937C905.924 128.913 905.486 129.872 897.615 150.912C889.745 171.952 874.426 213.075 866.436 233.808C858.445 254.541 857.733 254.89 851.743 253.014C845.752 251.138 834.466 247.037 813.564 239.571C792.662 232.105 762.136 221.28 745.563 216.521C728.99 211.762 726.365 213.072 723.566 213.32C720.768 213.569 717.796 212.755 715.294 209.523C712.791 206.292 710.764 200.644 710.37 196.775C709.976 192.905 711.216 190.811 715.512 185.049C719.807 179.287 727.141 169.858 735.855 158.202C744.569 146.546 754.615 132.671 763.504 119.092C772.394 105.512 780.086 92.2391 787.693 83.4211C795.301 74.6032 802.836 70.2458 810.782 66.1783C818.728 62.1109 827.14 58.364 836.323 54.3049C845.506 50.2458 855.477 45.8801 862.735 42.3451C869.994 38.8101 874.544 36.1031 877.342 35.1859C880.141 34.2687 881.191 35.1441 881.059 37.6309C880.928 40.1176 879.615 44.2157 878.216 47.8009C876.817 51.386 875.328 54.4415 876.116 53.6553C876.903 52.8692 879.967 48.2414 881.453 45.0995C882.939 41.9576 882.852 40.2988 882.459 38.509C882.065 36.7192 881.364 34.7984 872.706 48.5926C864.048 62.3869 847.503 91.846 837.18 109.568C826.858 127.291 822.836 133.226 820.518 136.195C818.2 139.164 817.588 139.164 807.704 142.744C797.82 146.323 778.667 153.482 763.099 160.466C747.532 167.449 735.548 174.257 728.158 179.061C720.768 183.864 717.98 186.658 717.182 187.661C716.383 188.665 717.62 187.881 723.086 184.999C728.552 182.116 738.26 177.14 746.918 173.125C755.637 169.023 764.64 165.551 773.858 162.735C784.526 159.418 798.259 155.841 807.179 153.744C816.1 151.648 820.222 151.04 823.493 149.161C826.763 147.282 829.224 144.137 834.862 134.012C840.501 123.887 849.335 106.772 855.896 93.6776C862.456 80.5831 866.737 71.5003 870.108 66.8753C873.479 62.2503 875.923 62.0774 879.903 61.7262C883.883 61.3749 889.393 60.848 892.236 60.9818C895.08 61.1156 895.267 61.9018 888.564 80.4967C881.861 99.0916 868.304 135.495 860.914 155.707C853.524 175.919 852.309 179.936 848.712 181.943C845.115 183.951 839.169 183.948 824.694 184.037C810.218 184.126 787.213 184.299 770.816 185.565C754.419 186.83 744.619 189.197 745.365 190.499C746.11 191.801 757.391 192.08 776.109 192.638C794.827 193.195 820.973 194.076 834.357 194.031C847.74 193.987 848.355 193.025 850.321 189.273C852.287 185.52 855.608 178.969 860.772 167.709C865.936 156.449 872.935 140.471 878.926 125.281C884.916 110.09 889.904 95.682 893.139 86.4292C896.373 77.1764 897.861 73.0699 899.043 73.9006C900.224 74.7314 901.095 80.4967 901.621 84.3355C902.146 88.1744 902.316 90.098 901.928 93.895C901.54 97.6921 900.573 103.368 895.674 117.642C890.776 131.916 881.942 154.79 874.552 171.857C867.162 188.924 861.216 200.187 858.459 204.115C855.703 208.043 856.133 204.636 859.51 195.121C862.886 185.607 869.187 169.981 874.87 157.059C880.554 144.137 885.628 133.926 889.17 124.277C892.711 114.628 894.733 105.551 896.384 98.8713C898.035 92.1917 899.364 87.9123 900.573 86.5156C901.782 85.1189 902.933 86.5881 903.458 91.0988C903.983 95.6095 903.894 103.109 904.201 108.662C904.508 114.216 905.209 117.787 905.645 118.397C906.081 119.008 906.257 116.641 906.039 114.163C905.821 111.684 905.209 109.069 904.553 108.587C903.897 108.105 903.193 109.763 896.11 128.316C889.027 146.87 875.569 182.311 867.95 200.778C860.331 219.245 858.577 220.731 851.192 219.376C843.808 218.021 830.771 213.82 809.735 209.247C788.699 204.675 759.664 199.685 743.482 197.985C727.3 196.284 723.994 197.854 722.273 199.295C720.553 200.736 720.469 202.044 724.228 202.481C727.987 202.919 735.598 202.479 746.923 205.623C758.248 208.768 773.293 215.492 788.992 220.379C804.691 225.266 821.054 228.33 832.198 231.204C843.342 234.079 849.29 236.789 852.307 237.617C855.323 238.445 855.421 237.396 855.63 234.603C855.84 231.809 856.189 227.268 856.189 223.602C856.189 219.936 855.84 217.143 852.122 214.829C848.405 212.515 841.322 210.68 830.827 208.456C820.331 206.231 806.425 203.608 789.85 200.772C773.274 197.937 754.034 194.879 740.695 193.134C727.356 191.389 719.919 190.954 716.422 191.389C712.925 191.823 713.364 193.131 714.28 195.534C715.196 197.937 716.601 201.425 717.43 203.566C718.26 205.707 718.525 206.493 721.148 206.973C723.77 207.452 728.755 207.628 735.534 209.155C742.312 210.683 750.883 213.566 770.344 220.243C789.805 226.92 820.155 237.396 836.203 242.897C852.251 248.397 854.01 248.918 862.615 228.578C871.22 208.238 886.712 167.031 895.239 146.209C903.765 125.386 905.343 124.949 906.916 124.949C908.488 124.949 910.066 125.389 904.466 142.543C898.867 159.696 886.095 193.571 877.803 215.353C869.511 237.134 865.687 246.814 863.59 252.152C861.492 257.491 861.113 258.456 860.049 258.843C858.984 259.231 857.239 259.044 850.24 256.613C843.241 254.182 830.997 249.462 812.455 242.395C793.913 235.328 769.076 225.894 753.944 220.831C738.813 215.768 733.389 215.068 729.716 215.506C726.044 215.944 724.122 217.513 722.108 217.251C720.095 216.989 717.997 214.896 714.847 211.927C711.697 208.958 707.502 205.119 701.028 201.363C694.554 197.608 685.807 193.945 669.89 189.142C653.973 184.338 630.885 178.403 616.015 175.172C601.146 171.941 594.499 171.416 590.913 171.679C587.327 171.941 586.802 172.986 588.201 173.861C589.6 174.737 592.938 175.431 607.969 178.838C623 182.244 649.773 188.355 667.966 193.418C686.158 198.481 695.783 202.498 701.553 203.895C707.323 205.292 709.236 204.068 709.599 201.536C709.962 199.005 708.714 195.163 708.286 192.894C707.859 190.625 708.222 189.928 720.017 172.902C731.811 155.877 755.075 122.526 767.495 104.979C779.915 87.4328 781.488 85.6848 782.538 84.2017C783.588 82.7186 784.11 81.4947 777.29 73.2009C770.47 64.9071 756.299 49.5294 744.055 36.5324C731.811 23.5355 721.491 12.8832 715.456 6.42378C709.42 -0.0356417 707.675 -2.30773 694.115 8.60667C680.556 19.5211 655.194 43.6303 637.44 60.3908C619.685 77.1513 609.539 86.5797 604.553 91.556C599.568 96.5323 599.741 97.0704 601.841 98.8044C603.942 100.538 607.964 103.505 618.984 113.022C630.005 122.54 648.027 138.595 662.983 151.525C677.939 164.455 689.837 174.224 694.646 177.279C699.455 180.335 697.182 176.669 691.06 170.644C684.938 164.62 674.965 156.239 662.109 145.239C649.253 134.238 633.507 120.616 623.45 111.45C613.393 102.284 609.03 97.5722 604.822 97.3966C600.613 97.2209 596.591 101.595 593.091 104.991C589.592 108.386 586.618 110.837 587.405 112.847C588.193 114.857 592.742 116.429 603.85 123.413C614.957 130.396 632.619 142.794 647.318 151.96C662.017 161.127 673.739 167.062 677.76 168.548C681.782 170.034 678.104 167.065 666.564 158.771C655.024 150.477 635.605 136.856 623.185 128.824C610.765 120.792 605.344 118.347 601.755 118.523C598.166 118.698 596.412 121.511 593.438 124.915C590.463 128.319 586.266 132.337 586.791 135.13C587.316 137.923 592.564 139.493 607.869 146.044C623.174 152.596 648.538 164.115 664.807 171.274C681.075 178.433 688.245 181.238 688.77 180.703C689.295 180.167 683.173 176.329 668.742 168.994C654.311 161.659 631.572 150.831 615.828 143.237C600.085 135.643 591.338 131.274 586.877 129.967C582.417 128.659 582.241 130.402 582.155 135.205C582.068 140.009 582.065 147.868 582.417 151.882C582.769 155.897 583.459 156.075 588.103 157.383C592.748 158.69 601.308 161.146 614.253 164.804C627.198 168.461 644.517 173.351 659.559 177.628C674.602 181.904 687.368 185.57 692.093 186.619C696.819 187.667 693.495 186.097 681.424 181.731C669.354 177.366 648.538 170.204 632.795 165.317C617.052 160.43 606.383 157.812 600.347 157.112C594.312 156.412 592.915 157.633 590.815 159.816C588.715 161.999 585.917 165.141 583.73 167.238C581.543 169.334 579.971 170.382 569.299 171.255C558.627 172.127 538.865 172.824 519.097 163.572C499.329 154.319 479.555 135.113 450.875 126.12C422.195 117.126 384.589 118.347 346.98 119.571C314.073 123.82 236.846 136.603 191.199 153.744C145.551 170.886 45.3797 153.882 1 143.237" stroke="#B0A38A" stroke-miterlimit="2.61"/>
</svg>
