<svg width="124" height="32" viewBox="0 0 124 32" fill="none" xmlns="http://www.w3.org/2000/svg">
<g clip-path="url(#clip0_234_3758)">
<path d="M117.764 23.9756C115.691 22.0735 115.145 19.7658 114.991 18.9826C119.432 11.5979 119.123 6.38116 116.251 4.63291C115.747 4.32522 113.814 3.37417 111.866 4.91263C109.709 -0.388071 103.306 -0.150308 98.7534 1.50004C94.5084 3.0385 91.5524 6.66088 89.2688 12.1714C88.9606 12.1714 88.4563 12.1434 87.8959 11.9336C87.3215 11.7238 86.9152 11.4161 86.691 11.2063C86.8171 10.0315 86.7751 7.61193 86.3688 4.96857C85.8364 1.51403 83.763 -0.31814 81.8437 0.045496C79.8123 0.423118 79.0137 3.16438 79.1819 5.48606C79.322 7.41613 80.3727 8.75878 80.863 9.30424C80.6529 13.8077 78.9857 18.8007 74.6007 20.9965C69.4732 23.57 65.6765 21.7937 62.8606 18.4791C63.6872 16.9826 64.5558 13.9336 64.7239 10.0595C64.9621 4.80074 62.6645 1.7378 60.2548 1.6399C57.2427 1.542 55.5756 5.59794 55.1273 8.77277C54.665 12.0455 55.1133 14.9126 55.4495 16.4511C53.4881 20.1014 49.9157 22.0035 46.5954 21.9896C41.2157 21.9616 38.1195 17.0944 39.1423 9.31822C39.1563 9.20634 39.3244 9.20634 39.3244 9.31822C39.3804 9.89165 39.4505 11.0525 39.5065 11.5979C39.6186 12.7448 39.7867 13.7658 40.0669 14.563C40.0949 14.6609 40.235 14.6749 40.291 14.6049C40.9915 13.6819 43.149 9.96158 43.177 5.90564C43.191 3.48606 42.2804 0.03151 38.9601 0.045496C34.2389 0.073468 33.1461 5.75179 32.7679 8.60494C32.1935 12.8007 32.3896 16.7588 32.908 18.6469C31.9133 19.528 25.1326 23.8637 17.5814 23.0665C12.4398 22.521 11.6693 18.2693 11.6693 18.2693C11.6693 18.2693 17.2592 20.7728 23.9558 16.507C27.9345 13.9756 29.4195 7.84969 26.6737 4.22731C21.1258 -3.10136 8.11086 -0.360098 2.33888 9.23431C-1.33165 15.3462 -1.21957 25.514 6.58381 29.9756C16.3205 35.542 28.593 28.4651 34.0708 23.0525C35.836 28.0315 40.3891 31.9756 45.6427 32.0035C50.8403 32.0315 55.4495 29.7098 58.9939 25.4441C59.7224 26.6889 63.9534 32.2972 70.8181 31.8916C78.5094 31.4301 85.178 23.9616 86.5229 13.4721C87.1954 13.7098 87.8538 13.9336 88.5263 14.1714C86.663 20.6049 88.6804 27.6399 93.5558 30.3532C98.5292 33.1364 105.24 30.6469 110.045 25.6119C112.203 30.0175 114.92 31.9616 117.12 31.9896C120.216 32.0175 122.598 29.528 123.719 26.4091C122.36 26.3392 120.174 26.1993 117.764 23.9756ZM5.98139 14.2273C5.93936 14.1854 7.08815 14.3812 9.11955 14.3812C10.1002 14.3812 10.9268 14.3252 11.5292 14.2693C13.3365 7.91962 18.0717 5.08046 20.2993 7.51403C22.4988 9.91962 19.1084 14.8287 13.6307 14.9965C10.8708 15.0805 6.48574 14.6889 5.98139 14.2273ZM108.868 15.3042C108.77 19.2063 109.401 22.0735 109.807 24.0035C109.821 24.1014 109.695 24.1434 109.653 24.0595C109.092 22.9406 108.518 21.2623 108.238 19.7798C107.453 20.3672 105.604 21.4441 103.559 21.2483C99.8321 20.9126 96.3577 18.3951 97.9968 12.0455C99.3277 6.92662 106.501 2.80074 110.115 8.07347C109.583 9.542 108.966 11.7658 108.868 15.3042Z" fill="#00B2FF"/>
</g>
<defs>
<clipPath id="clip0_234_3758">
<rect width="124" height="32" fill="white"/>
</clipPath>
</defs>
</svg>
